<!DOCTYPE svg PUBLIC "-//W3C//DTD SVG 1.1//EN" "http://www.w3.org/Graphics/SVG/1.1/DTD/svg11.dtd">
<!-- Uploaded to: SVG Repo, www.svgrepo.com, Transformed by: SVG Repo Mixer Tools -->
<svg fill="#A3A3A3" version="1.1" id="Capa_1" xmlns="http://www.w3.org/2000/svg" xmlns:xlink="http://www.w3.org/1999/xlink" width="800px" height="800px" viewBox="0 0 464.544 464.544" xml:space="preserve" stroke="#A3A3A3">
<g id="SVGRepo_bgCarrier" stroke-width="0"/>
<g id="SVGRepo_tracerCarrier" stroke-linecap="round" stroke-linejoin="round"/>
<g id="SVGRepo_iconCarrier"> <g> <g> <g> <path d="M226.246,246.141c-7.002-8.572-16.13-13.281-25.793-13.281c-9.662,0-18.79,4.708-25.792,13.281 c-19.308,6.842-31.26,20.493-31.26,35.784s11.952,28.941,31.26,35.784c7.001,8.572,16.129,13.28,25.792,13.28 c9.664,0,18.792-4.708,25.793-13.28c19.309-6.841,31.261-20.492,31.261-35.784C257.506,266.634,245.555,252.982,226.246,246.141z "/> <path d="M303.514,260.889c-16.02,0-29.051,9.438-29.051,21.036s13.031,21.036,29.051,21.036s29.051-9.438,29.051-21.036 S319.533,260.889,303.514,260.889z"/> <path d="M97.392,260.889c-16.019,0-29.052,9.438-29.052,21.036s13.033,21.036,29.052,21.036s29.051-9.438,29.051-21.036 S113.411,260.889,97.392,260.889z"/> </g> <path d="M455.811,149.25L85.665,68.983c-5.979-1.297-11.878,2.5-13.175,8.479l-19.64,90.571H11.079 C4.96,168.033,0,172.992,0,179.112v205.623c0,6.119,4.96,11.079,11.079,11.079h378.747c6.119,0,11.08-4.959,11.08-11.079v-14.317 l6.631,1.438c5.98,1.297,11.879-2.5,13.176-8.479l43.576-200.954C465.588,156.444,461.789,150.546,455.811,149.25z M378.748,335.281c-4.227-2.439-9.131-3.844-14.361-3.844c-15.895,0-28.777,12.885-28.777,28.778 c0,4.855,1.207,9.429,3.332,13.441H61.966c2.124-4.013,3.332-8.585,3.332-13.441c0-15.894-12.885-28.778-28.778-28.778 c-5.232,0-10.135,1.404-14.362,3.844V228.568c4.227,2.44,9.129,3.845,14.362,3.845c15.893,0,28.778-12.886,28.778-28.779 c0-4.856-1.208-9.429-3.332-13.442h276.976c-2.125,4.013-3.332,8.585-3.332,13.442c0,15.894,12.883,28.779,28.777,28.779 c5.23,0,10.135-1.405,14.361-3.845V335.281L378.748,335.281z M75.522,168.034l8.142-37.544c3.614,3.281,8.107,5.692,13.222,6.8 c15.532,3.369,30.854-6.494,34.223-22.026c1.029-4.746,0.818-9.471-0.409-13.843l270.685,58.698 c-2.371,2.812-4.221,6.117-5.389,9.791l0.002,0.001c-1.764-1.185-3.887-1.878-6.172-1.878L75.522,168.034L75.522,168.034z M409.539,310.351c-2.486-2.258-5.398-4.09-8.633-5.383V196.591c3.988,5.005,9.658,8.72,16.398,10.182 c5.113,1.109,10.201,0.776,14.85-0.712L409.539,310.351z"/> </g> </g> </g>
</svg>